<mxfile host="app.diagrams.net" modified="2024-01-21T17:59:36.404Z" agent="Mozilla/5.0 (Macintosh; Intel Mac OS X 10_15_7) AppleWebKit/537.36 (KHTML, like Gecko) Chrome/120.0.0.0 Safari/537.36" etag="FD_Cgk9Bv8OdMMU5HEF2" version="22.1.21" type="device">
  <diagram name="Página-1" id="Lac5xdruxCOQRcGzFFcc">
    <mxGraphModel dx="1434" dy="761" grid="1" gridSize="10" guides="1" tooltips="1" connect="1" arrows="1" fold="1" page="1" pageScale="1" pageWidth="827" pageHeight="1169" math="0" shadow="0">
      <root>
        <mxCell id="0" />
        <mxCell id="1" parent="0" />
        <mxCell id="zl-BVNV_Rd2z-lB_r9PP-1" value="" style="shape=umlLifeline;perimeter=lifelinePerimeter;whiteSpace=wrap;html=1;container=1;dropTarget=0;collapsible=0;recursiveResize=0;outlineConnect=0;portConstraint=eastwest;newEdgeStyle={&quot;curved&quot;:0,&quot;rounded&quot;:0};participant=umlActor;" parent="1" vertex="1">
          <mxGeometry x="200" y="50" width="20" height="1630" as="geometry" />
        </mxCell>
        <mxCell id="zl-BVNV_Rd2z-lB_r9PP-4" value="Site: olx.pt" style="shape=umlLifeline;perimeter=lifelinePerimeter;whiteSpace=wrap;html=1;container=1;dropTarget=0;collapsible=0;recursiveResize=0;outlineConnect=0;portConstraint=eastwest;newEdgeStyle={&quot;edgeStyle&quot;:&quot;elbowEdgeStyle&quot;,&quot;elbow&quot;:&quot;vertical&quot;,&quot;curved&quot;:0,&quot;rounded&quot;:0};" parent="1" vertex="1">
          <mxGeometry x="340" y="35" width="100" height="1645" as="geometry" />
        </mxCell>
        <mxCell id="zl-BVNV_Rd2z-lB_r9PP-5" value="" style="html=1;points=[[0,0,0,0,5],[0,1,0,0,-5],[1,0,0,0,5],[1,1,0,0,-5]];perimeter=orthogonalPerimeter;outlineConnect=0;targetShapes=umlLifeline;portConstraint=eastwest;newEdgeStyle={&quot;curved&quot;:0,&quot;rounded&quot;:0};" parent="zl-BVNV_Rd2z-lB_r9PP-4" vertex="1">
          <mxGeometry x="45" y="60" width="10" height="1510" as="geometry" />
        </mxCell>
        <mxCell id="zl-BVNV_Rd2z-lB_r9PP-8" value="Servidor OLX" style="shape=umlLifeline;perimeter=lifelinePerimeter;whiteSpace=wrap;html=1;container=1;dropTarget=0;collapsible=0;recursiveResize=0;outlineConnect=0;portConstraint=eastwest;newEdgeStyle={&quot;edgeStyle&quot;:&quot;elbowEdgeStyle&quot;,&quot;elbow&quot;:&quot;vertical&quot;,&quot;curved&quot;:0,&quot;rounded&quot;:0};" parent="1" vertex="1">
          <mxGeometry x="770" y="30" width="100" height="1650" as="geometry" />
        </mxCell>
        <mxCell id="zl-BVNV_Rd2z-lB_r9PP-9" value="" style="html=1;points=[[0,0,0,0,5],[0,1,0,0,-5],[1,0,0,0,5],[1,1,0,0,-5]];perimeter=orthogonalPerimeter;outlineConnect=0;targetShapes=umlLifeline;portConstraint=eastwest;newEdgeStyle={&quot;curved&quot;:0,&quot;rounded&quot;:0};" parent="zl-BVNV_Rd2z-lB_r9PP-8" vertex="1">
          <mxGeometry x="45" y="60" width="10" height="850" as="geometry" />
        </mxCell>
        <mxCell id="zl-BVNV_Rd2z-lB_r9PP-10" value="Servidor Externo" style="shape=umlLifeline;perimeter=lifelinePerimeter;whiteSpace=wrap;html=1;container=1;dropTarget=0;collapsible=0;recursiveResize=0;outlineConnect=0;portConstraint=eastwest;newEdgeStyle={&quot;edgeStyle&quot;:&quot;elbowEdgeStyle&quot;,&quot;elbow&quot;:&quot;vertical&quot;,&quot;curved&quot;:0,&quot;rounded&quot;:0};" parent="1" vertex="1">
          <mxGeometry x="990" y="30" width="100" height="1650" as="geometry" />
        </mxCell>
        <mxCell id="zl-BVNV_Rd2z-lB_r9PP-11" value="" style="html=1;points=[[0,0,0,0,5],[0,1,0,0,-5],[1,0,0,0,5],[1,1,0,0,-5]];perimeter=orthogonalPerimeter;outlineConnect=0;targetShapes=umlLifeline;portConstraint=eastwest;newEdgeStyle={&quot;curved&quot;:0,&quot;rounded&quot;:0};" parent="zl-BVNV_Rd2z-lB_r9PP-10" vertex="1">
          <mxGeometry x="45" y="60" width="10" height="1510" as="geometry" />
        </mxCell>
        <mxCell id="zl-BVNV_Rd2z-lB_r9PP-13" value="" style="endArrow=classic;startArrow=none;endFill=1;startFill=0;endSize=8;html=1;verticalAlign=bottom;labelBackgroundColor=none;strokeWidth=1;rounded=0;" parent="1" edge="1">
          <mxGeometry width="160" relative="1" as="geometry">
            <mxPoint x="220" y="120" as="sourcePoint" />
            <mxPoint x="360.5" y="120" as="targetPoint" />
            <Array as="points">
              <mxPoint x="290.5" y="120" />
            </Array>
          </mxGeometry>
        </mxCell>
        <mxCell id="zl-BVNV_Rd2z-lB_r9PP-14" value="Inserir dados produto" style="edgeLabel;html=1;align=center;verticalAlign=middle;resizable=0;points=[];" parent="zl-BVNV_Rd2z-lB_r9PP-13" vertex="1" connectable="0">
          <mxGeometry x="-0.3133" y="-2" relative="1" as="geometry">
            <mxPoint x="12" y="-12" as="offset" />
          </mxGeometry>
        </mxCell>
        <mxCell id="zl-BVNV_Rd2z-lB_r9PP-22" value="" style="endArrow=classic;startArrow=none;endFill=1;startFill=0;endSize=8;html=1;verticalAlign=bottom;labelBackgroundColor=none;strokeWidth=1;rounded=0;edgeStyle=orthogonalEdgeStyle;" parent="1" edge="1">
          <mxGeometry width="160" relative="1" as="geometry">
            <mxPoint x="421.5" y="120" as="sourcePoint" />
            <mxPoint x="410" y="161" as="targetPoint" />
            <Array as="points">
              <mxPoint x="421.5" y="121" />
              <mxPoint x="486.5" y="121" />
              <mxPoint x="486.5" y="161" />
            </Array>
          </mxGeometry>
        </mxCell>
        <mxCell id="zl-BVNV_Rd2z-lB_r9PP-23" value="verifica dados" style="edgeLabel;html=1;align=center;verticalAlign=middle;resizable=0;points=[];" parent="zl-BVNV_Rd2z-lB_r9PP-22" vertex="1" connectable="0">
          <mxGeometry x="-0.3133" y="-2" relative="1" as="geometry">
            <mxPoint x="3" y="-12" as="offset" />
          </mxGeometry>
        </mxCell>
        <mxCell id="zl-BVNV_Rd2z-lB_r9PP-34" value="Back-End" style="shape=umlLifeline;perimeter=lifelinePerimeter;whiteSpace=wrap;html=1;container=1;dropTarget=0;collapsible=0;recursiveResize=0;outlineConnect=0;portConstraint=eastwest;newEdgeStyle={&quot;edgeStyle&quot;:&quot;elbowEdgeStyle&quot;,&quot;elbow&quot;:&quot;vertical&quot;,&quot;curved&quot;:0,&quot;rounded&quot;:0};" parent="1" vertex="1">
          <mxGeometry x="550" y="30" width="100" height="1650" as="geometry" />
        </mxCell>
        <mxCell id="zl-BVNV_Rd2z-lB_r9PP-35" value="" style="html=1;points=[[0,0,0,0,5],[0,1,0,0,-5],[1,0,0,0,5],[1,1,0,0,-5]];perimeter=orthogonalPerimeter;outlineConnect=0;targetShapes=umlLifeline;portConstraint=eastwest;newEdgeStyle={&quot;curved&quot;:0,&quot;rounded&quot;:0};fillColor=#808080;" parent="zl-BVNV_Rd2z-lB_r9PP-34" vertex="1">
          <mxGeometry x="45" y="60" width="10" height="1510" as="geometry" />
        </mxCell>
        <mxCell id="zl-BVNV_Rd2z-lB_r9PP-57" value="verificação dados produtos" style="shape=umlFrame;whiteSpace=wrap;html=1;pointerEvents=0;recursiveResize=0;container=1;collapsible=0;width=170;" parent="1" vertex="1">
          <mxGeometry y="200" width="520" height="270" as="geometry" />
        </mxCell>
        <mxCell id="zl-BVNV_Rd2z-lB_r9PP-58" value="Dados Ok" style="text;html=1;" parent="zl-BVNV_Rd2z-lB_r9PP-57" vertex="1">
          <mxGeometry width="100" height="20" relative="1" as="geometry">
            <mxPoint x="20" y="40" as="offset" />
          </mxGeometry>
        </mxCell>
        <mxCell id="zl-BVNV_Rd2z-lB_r9PP-59" value="" style="line;strokeWidth=1;dashed=1;labelPosition=center;verticalLabelPosition=bottom;align=left;verticalAlign=top;spacingLeft=20;spacingTop=15;html=1;whiteSpace=wrap;" parent="zl-BVNV_Rd2z-lB_r9PP-57" vertex="1">
          <mxGeometry y="130" width="520" height="10" as="geometry" />
        </mxCell>
        <mxCell id="zl-BVNV_Rd2z-lB_r9PP-87" value="" style="endArrow=classic;startArrow=none;endFill=1;startFill=0;endSize=8;html=1;verticalAlign=bottom;dashed=1;labelBackgroundColor=none;rounded=0;" parent="zl-BVNV_Rd2z-lB_r9PP-57" edge="1">
          <mxGeometry width="160" relative="1" as="geometry">
            <mxPoint x="360" y="220" as="sourcePoint" />
            <mxPoint x="230" y="220" as="targetPoint" />
          </mxGeometry>
        </mxCell>
        <mxCell id="zl-BVNV_Rd2z-lB_r9PP-88" value="mensagem dados não OK" style="edgeLabel;html=1;align=center;verticalAlign=middle;resizable=0;points=[];" parent="zl-BVNV_Rd2z-lB_r9PP-87" vertex="1" connectable="0">
          <mxGeometry x="0.2" relative="1" as="geometry">
            <mxPoint x="16" y="-20" as="offset" />
          </mxGeometry>
        </mxCell>
        <mxCell id="zl-BVNV_Rd2z-lB_r9PP-107" value="" style="endArrow=classic;startArrow=none;endFill=1;startFill=0;endSize=8;html=1;verticalAlign=bottom;dashed=1;labelBackgroundColor=none;rounded=0;" parent="zl-BVNV_Rd2z-lB_r9PP-57" edge="1">
          <mxGeometry width="160" relative="1" as="geometry">
            <mxPoint x="370" y="100" as="sourcePoint" />
            <mxPoint x="240" y="100" as="targetPoint" />
          </mxGeometry>
        </mxCell>
        <mxCell id="zl-BVNV_Rd2z-lB_r9PP-108" value="&amp;nbsp;dados inseridos OK" style="edgeLabel;html=1;align=center;verticalAlign=middle;resizable=0;points=[];" parent="zl-BVNV_Rd2z-lB_r9PP-107" vertex="1" connectable="0">
          <mxGeometry x="0.2" relative="1" as="geometry">
            <mxPoint x="8" y="-20" as="offset" />
          </mxGeometry>
        </mxCell>
        <mxCell id="6IAfeoGBQtWTbhFF_gok-45" value="Dados não OK" style="text;html=1;align=center;verticalAlign=middle;resizable=0;points=[];autosize=1;strokeColor=none;fillColor=none;" vertex="1" parent="zl-BVNV_Rd2z-lB_r9PP-57">
          <mxGeometry x="10" y="170" width="100" height="30" as="geometry" />
        </mxCell>
        <mxCell id="zl-BVNV_Rd2z-lB_r9PP-89" value="Publicar sem destaque" style="shape=umlFrame;whiteSpace=wrap;html=1;pointerEvents=0;recursiveResize=0;container=1;collapsible=0;width=170;" parent="1" vertex="1">
          <mxGeometry y="570" width="940" height="340" as="geometry" />
        </mxCell>
        <mxCell id="zl-BVNV_Rd2z-lB_r9PP-91" value="" style="line;strokeWidth=1;dashed=1;labelPosition=center;verticalLabelPosition=bottom;align=left;verticalAlign=top;spacingLeft=20;spacingTop=15;html=1;whiteSpace=wrap;" parent="zl-BVNV_Rd2z-lB_r9PP-89" vertex="1">
          <mxGeometry y="160" width="940" height="10" as="geometry" />
        </mxCell>
        <mxCell id="zl-BVNV_Rd2z-lB_r9PP-97" value="" style="endArrow=classic;startArrow=none;endFill=1;startFill=0;endSize=8;html=1;verticalAlign=bottom;labelBackgroundColor=none;strokeWidth=1;rounded=0;dashed=1;" parent="zl-BVNV_Rd2z-lB_r9PP-89" edge="1">
          <mxGeometry width="160" relative="1" as="geometry">
            <mxPoint x="650" y="80" as="sourcePoint" />
            <mxPoint x="795" y="80.5" as="targetPoint" />
            <Array as="points">
              <mxPoint x="720.5" y="80" />
            </Array>
          </mxGeometry>
        </mxCell>
        <mxCell id="zl-BVNV_Rd2z-lB_r9PP-98" value="envia dados" style="edgeLabel;html=1;align=center;verticalAlign=middle;resizable=0;points=[];" parent="zl-BVNV_Rd2z-lB_r9PP-97" vertex="1" connectable="0">
          <mxGeometry x="-0.3133" y="-2" relative="1" as="geometry">
            <mxPoint x="19" y="-12" as="offset" />
          </mxGeometry>
        </mxCell>
        <mxCell id="zl-BVNV_Rd2z-lB_r9PP-99" value="" style="endArrow=classic;startArrow=none;endFill=1;startFill=0;endSize=8;html=1;verticalAlign=bottom;labelBackgroundColor=none;strokeWidth=1;rounded=0;dashed=1;" parent="zl-BVNV_Rd2z-lB_r9PP-89" edge="1">
          <mxGeometry width="160" relative="1" as="geometry">
            <mxPoint x="430" y="20" as="sourcePoint" />
            <mxPoint x="540" y="20" as="targetPoint" />
            <Array as="points" />
          </mxGeometry>
        </mxCell>
        <mxCell id="zl-BVNV_Rd2z-lB_r9PP-100" value="envio dados" style="edgeLabel;html=1;align=center;verticalAlign=middle;resizable=0;points=[];" parent="zl-BVNV_Rd2z-lB_r9PP-99" vertex="1" connectable="0">
          <mxGeometry x="-0.3133" y="-2" relative="1" as="geometry">
            <mxPoint x="19" y="-12" as="offset" />
          </mxGeometry>
        </mxCell>
        <mxCell id="zl-BVNV_Rd2z-lB_r9PP-101" value="" style="endArrow=classic;startArrow=none;endFill=1;startFill=0;endSize=8;html=1;verticalAlign=bottom;labelBackgroundColor=none;strokeWidth=1;rounded=0;edgeStyle=orthogonalEdgeStyle;" parent="zl-BVNV_Rd2z-lB_r9PP-89" edge="1">
          <mxGeometry width="160" relative="1" as="geometry">
            <mxPoint x="631.5" y="20" as="sourcePoint" />
            <mxPoint x="620" y="61" as="targetPoint" />
            <Array as="points">
              <mxPoint x="631.5" y="21" />
              <mxPoint x="696.5" y="21" />
              <mxPoint x="696.5" y="61" />
            </Array>
          </mxGeometry>
        </mxCell>
        <mxCell id="zl-BVNV_Rd2z-lB_r9PP-102" value="verifica dados" style="edgeLabel;html=1;align=center;verticalAlign=middle;resizable=0;points=[];" parent="zl-BVNV_Rd2z-lB_r9PP-101" vertex="1" connectable="0">
          <mxGeometry x="-0.3133" y="-2" relative="1" as="geometry">
            <mxPoint x="3" y="-12" as="offset" />
          </mxGeometry>
        </mxCell>
        <mxCell id="zl-BVNV_Rd2z-lB_r9PP-103" value="" style="endArrow=classic;startArrow=none;endFill=1;startFill=0;endSize=8;html=1;verticalAlign=bottom;dashed=1;labelBackgroundColor=none;rounded=0;" parent="zl-BVNV_Rd2z-lB_r9PP-89" edge="1">
          <mxGeometry width="160" relative="1" as="geometry">
            <mxPoint x="810" y="110" as="sourcePoint" />
            <mxPoint x="650" y="110" as="targetPoint" />
          </mxGeometry>
        </mxCell>
        <mxCell id="zl-BVNV_Rd2z-lB_r9PP-104" value="dados guardados" style="edgeLabel;html=1;align=center;verticalAlign=middle;resizable=0;points=[];" parent="zl-BVNV_Rd2z-lB_r9PP-103" vertex="1" connectable="0">
          <mxGeometry x="0.2" relative="1" as="geometry">
            <mxPoint x="16" y="-10" as="offset" />
          </mxGeometry>
        </mxCell>
        <mxCell id="zl-BVNV_Rd2z-lB_r9PP-105" value="" style="endArrow=classic;startArrow=none;endFill=1;startFill=0;endSize=8;html=1;verticalAlign=bottom;dashed=1;labelBackgroundColor=none;rounded=0;" parent="zl-BVNV_Rd2z-lB_r9PP-89" edge="1">
          <mxGeometry width="160" relative="1" as="geometry">
            <mxPoint x="570" y="130" as="sourcePoint" />
            <mxPoint x="440" y="130" as="targetPoint" />
          </mxGeometry>
        </mxCell>
        <mxCell id="zl-BVNV_Rd2z-lB_r9PP-106" value="dados OK" style="edgeLabel;html=1;align=center;verticalAlign=middle;resizable=0;points=[];" parent="zl-BVNV_Rd2z-lB_r9PP-105" vertex="1" connectable="0">
          <mxGeometry x="0.2" relative="1" as="geometry">
            <mxPoint x="16" y="-10" as="offset" />
          </mxGeometry>
        </mxCell>
        <mxCell id="zl-BVNV_Rd2z-lB_r9PP-74" value="" style="endArrow=classic;startArrow=none;endFill=1;startFill=0;endSize=8;html=1;verticalAlign=bottom;dashed=1;labelBackgroundColor=none;rounded=0;" parent="zl-BVNV_Rd2z-lB_r9PP-89" edge="1">
          <mxGeometry width="160" relative="1" as="geometry">
            <mxPoint x="360" y="270" as="sourcePoint" />
            <mxPoint x="230" y="270" as="targetPoint" />
          </mxGeometry>
        </mxCell>
        <mxCell id="zl-BVNV_Rd2z-lB_r9PP-75" value="mensagem erro" style="edgeLabel;html=1;align=center;verticalAlign=middle;resizable=0;points=[];" parent="zl-BVNV_Rd2z-lB_r9PP-74" vertex="1" connectable="0">
          <mxGeometry x="0.2" relative="1" as="geometry">
            <mxPoint x="18" y="-20" as="offset" />
          </mxGeometry>
        </mxCell>
        <mxCell id="6IAfeoGBQtWTbhFF_gok-1" value="" style="endArrow=classic;startArrow=none;endFill=1;startFill=0;endSize=8;html=1;verticalAlign=bottom;labelBackgroundColor=none;strokeWidth=1;rounded=0;edgeStyle=orthogonalEdgeStyle;" edge="1" parent="zl-BVNV_Rd2z-lB_r9PP-89">
          <mxGeometry width="160" relative="1" as="geometry">
            <mxPoint x="839" y="80" as="sourcePoint" />
            <mxPoint x="827" y="101" as="targetPoint" />
            <Array as="points">
              <mxPoint x="839" y="80" />
              <mxPoint x="904" y="80" />
              <mxPoint x="904" y="100" />
            </Array>
          </mxGeometry>
        </mxCell>
        <mxCell id="6IAfeoGBQtWTbhFF_gok-2" value="guarda dados" style="edgeLabel;html=1;align=center;verticalAlign=middle;resizable=0;points=[];" vertex="1" connectable="0" parent="6IAfeoGBQtWTbhFF_gok-1">
          <mxGeometry x="-0.3133" y="-2" relative="1" as="geometry">
            <mxPoint x="-25" y="-22" as="offset" />
          </mxGeometry>
        </mxCell>
        <mxCell id="6IAfeoGBQtWTbhFF_gok-3" value="" style="endArrow=classic;startArrow=none;endFill=1;startFill=0;endSize=8;html=1;verticalAlign=bottom;dashed=1;labelBackgroundColor=none;rounded=0;" edge="1" parent="zl-BVNV_Rd2z-lB_r9PP-89">
          <mxGeometry width="160" relative="1" as="geometry">
            <mxPoint x="570" y="220" as="sourcePoint" />
            <mxPoint x="440" y="220" as="targetPoint" />
          </mxGeometry>
        </mxCell>
        <mxCell id="6IAfeoGBQtWTbhFF_gok-4" value="dados não OK" style="edgeLabel;html=1;align=center;verticalAlign=middle;resizable=0;points=[];" vertex="1" connectable="0" parent="6IAfeoGBQtWTbhFF_gok-3">
          <mxGeometry x="0.2" relative="1" as="geometry">
            <mxPoint x="16" y="-10" as="offset" />
          </mxGeometry>
        </mxCell>
        <mxCell id="6IAfeoGBQtWTbhFF_gok-5" value="" style="endArrow=classic;startArrow=none;endFill=1;startFill=0;endSize=8;html=1;verticalAlign=bottom;dashed=1;labelBackgroundColor=none;rounded=0;" edge="1" parent="zl-BVNV_Rd2z-lB_r9PP-89">
          <mxGeometry width="160" relative="1" as="geometry">
            <mxPoint x="360" y="150" as="sourcePoint" />
            <mxPoint x="230" y="150" as="targetPoint" />
          </mxGeometry>
        </mxCell>
        <mxCell id="6IAfeoGBQtWTbhFF_gok-6" value="mensagem publicação inserida" style="edgeLabel;html=1;align=center;verticalAlign=middle;resizable=0;points=[];" vertex="1" connectable="0" parent="6IAfeoGBQtWTbhFF_gok-5">
          <mxGeometry x="0.2" relative="1" as="geometry">
            <mxPoint x="18" y="-20" as="offset" />
          </mxGeometry>
        </mxCell>
        <mxCell id="6IAfeoGBQtWTbhFF_gok-8" value="publicação ok" style="text;html=1;strokeColor=none;fillColor=none;align=center;verticalAlign=middle;whiteSpace=wrap;rounded=0;" vertex="1" parent="zl-BVNV_Rd2z-lB_r9PP-89">
          <mxGeometry x="50" y="70" width="100" height="30" as="geometry" />
        </mxCell>
        <mxCell id="6IAfeoGBQtWTbhFF_gok-9" value="publicação não ok" style="text;html=1;strokeColor=none;fillColor=none;align=center;verticalAlign=middle;whiteSpace=wrap;rounded=0;" vertex="1" parent="zl-BVNV_Rd2z-lB_r9PP-89">
          <mxGeometry x="50" y="240" width="100" height="30" as="geometry" />
        </mxCell>
        <mxCell id="zl-BVNV_Rd2z-lB_r9PP-95" value="" style="endArrow=classic;startArrow=none;endFill=1;startFill=0;endSize=8;html=1;verticalAlign=bottom;labelBackgroundColor=none;strokeWidth=1;rounded=0;" parent="1" edge="1">
          <mxGeometry width="160" relative="1" as="geometry">
            <mxPoint x="230" y="530" as="sourcePoint" />
            <mxPoint x="370.5" y="530" as="targetPoint" />
            <Array as="points">
              <mxPoint x="300.5" y="530" />
            </Array>
          </mxGeometry>
        </mxCell>
        <mxCell id="zl-BVNV_Rd2z-lB_r9PP-96" value="carrega botão publicar" style="edgeLabel;html=1;align=center;verticalAlign=middle;resizable=0;points=[];" parent="zl-BVNV_Rd2z-lB_r9PP-95" vertex="1" connectable="0">
          <mxGeometry x="-0.3133" y="-2" relative="1" as="geometry">
            <mxPoint x="12" y="-12" as="offset" />
          </mxGeometry>
        </mxCell>
        <mxCell id="6IAfeoGBQtWTbhFF_gok-10" value="Publicar com destaque" style="shape=umlFrame;whiteSpace=wrap;html=1;pointerEvents=0;recursiveResize=0;container=1;collapsible=0;width=170;" vertex="1" parent="1">
          <mxGeometry y="1140" width="1250" height="380" as="geometry" />
        </mxCell>
        <mxCell id="6IAfeoGBQtWTbhFF_gok-11" value="" style="line;strokeWidth=1;dashed=1;labelPosition=center;verticalLabelPosition=bottom;align=left;verticalAlign=top;spacingLeft=20;spacingTop=15;html=1;whiteSpace=wrap;" vertex="1" parent="6IAfeoGBQtWTbhFF_gok-10">
          <mxGeometry y="190" width="1250" height="10" as="geometry" />
        </mxCell>
        <mxCell id="6IAfeoGBQtWTbhFF_gok-22" value="" style="endArrow=classic;startArrow=none;endFill=1;startFill=0;endSize=8;html=1;verticalAlign=bottom;dashed=1;labelBackgroundColor=none;rounded=0;" edge="1" parent="6IAfeoGBQtWTbhFF_gok-10">
          <mxGeometry width="160" relative="1" as="geometry">
            <mxPoint x="370" y="340" as="sourcePoint" />
            <mxPoint x="240" y="340" as="targetPoint" />
          </mxGeometry>
        </mxCell>
        <mxCell id="6IAfeoGBQtWTbhFF_gok-23" value="mensagem erro" style="edgeLabel;html=1;align=center;verticalAlign=middle;resizable=0;points=[];" vertex="1" connectable="0" parent="6IAfeoGBQtWTbhFF_gok-22">
          <mxGeometry x="0.2" relative="1" as="geometry">
            <mxPoint x="18" y="-20" as="offset" />
          </mxGeometry>
        </mxCell>
        <mxCell id="6IAfeoGBQtWTbhFF_gok-26" value="" style="endArrow=classic;startArrow=none;endFill=1;startFill=0;endSize=8;html=1;verticalAlign=bottom;dashed=1;labelBackgroundColor=none;rounded=0;" edge="1" parent="6IAfeoGBQtWTbhFF_gok-10">
          <mxGeometry width="160" relative="1" as="geometry">
            <mxPoint x="570" y="300" as="sourcePoint" />
            <mxPoint x="440" y="300" as="targetPoint" />
          </mxGeometry>
        </mxCell>
        <mxCell id="6IAfeoGBQtWTbhFF_gok-27" value="dados não OK" style="edgeLabel;html=1;align=center;verticalAlign=middle;resizable=0;points=[];" vertex="1" connectable="0" parent="6IAfeoGBQtWTbhFF_gok-26">
          <mxGeometry x="0.2" relative="1" as="geometry">
            <mxPoint x="16" y="-10" as="offset" />
          </mxGeometry>
        </mxCell>
        <mxCell id="6IAfeoGBQtWTbhFF_gok-31" value="dados pagamento não OK (paypal)" style="text;html=1;strokeColor=none;fillColor=none;align=center;verticalAlign=middle;whiteSpace=wrap;rounded=0;" vertex="1" parent="6IAfeoGBQtWTbhFF_gok-10">
          <mxGeometry x="40" y="270" width="100" height="30" as="geometry" />
        </mxCell>
        <mxCell id="6IAfeoGBQtWTbhFF_gok-18" value="" style="endArrow=classic;startArrow=none;endFill=1;startFill=0;endSize=8;html=1;verticalAlign=bottom;dashed=1;labelBackgroundColor=none;rounded=0;" edge="1" parent="6IAfeoGBQtWTbhFF_gok-10">
          <mxGeometry width="160" relative="1" as="geometry">
            <mxPoint x="1034" y="110" as="sourcePoint" />
            <mxPoint x="630" y="110" as="targetPoint" />
          </mxGeometry>
        </mxCell>
        <mxCell id="6IAfeoGBQtWTbhFF_gok-19" value="envio dados pagamento" style="edgeLabel;html=1;align=center;verticalAlign=middle;resizable=0;points=[];" vertex="1" connectable="0" parent="6IAfeoGBQtWTbhFF_gok-18">
          <mxGeometry x="0.2" relative="1" as="geometry">
            <mxPoint x="16" y="-10" as="offset" />
          </mxGeometry>
        </mxCell>
        <mxCell id="6IAfeoGBQtWTbhFF_gok-20" value="" style="endArrow=classic;startArrow=none;endFill=1;startFill=0;endSize=8;html=1;verticalAlign=bottom;dashed=1;labelBackgroundColor=none;rounded=0;" edge="1" parent="6IAfeoGBQtWTbhFF_gok-10">
          <mxGeometry width="160" relative="1" as="geometry">
            <mxPoint x="535" y="140" as="sourcePoint" />
            <mxPoint x="405" y="140" as="targetPoint" />
          </mxGeometry>
        </mxCell>
        <mxCell id="6IAfeoGBQtWTbhFF_gok-21" value="dados pagamento" style="edgeLabel;html=1;align=center;verticalAlign=middle;resizable=0;points=[];" vertex="1" connectable="0" parent="6IAfeoGBQtWTbhFF_gok-20">
          <mxGeometry x="0.2" relative="1" as="geometry">
            <mxPoint x="17" y="-25" as="offset" />
          </mxGeometry>
        </mxCell>
        <mxCell id="6IAfeoGBQtWTbhFF_gok-28" value="" style="endArrow=classic;startArrow=none;endFill=1;startFill=0;endSize=8;html=1;verticalAlign=bottom;dashed=1;labelBackgroundColor=none;rounded=0;" edge="1" parent="6IAfeoGBQtWTbhFF_gok-10">
          <mxGeometry width="160" relative="1" as="geometry">
            <mxPoint x="345" y="160" as="sourcePoint" />
            <mxPoint x="215" y="160" as="targetPoint" />
          </mxGeometry>
        </mxCell>
        <mxCell id="6IAfeoGBQtWTbhFF_gok-29" value="mostra dados pagamento" style="edgeLabel;html=1;align=center;verticalAlign=middle;resizable=0;points=[];" vertex="1" connectable="0" parent="6IAfeoGBQtWTbhFF_gok-28">
          <mxGeometry x="0.2" relative="1" as="geometry">
            <mxPoint x="18" y="-20" as="offset" />
          </mxGeometry>
        </mxCell>
        <mxCell id="6IAfeoGBQtWTbhFF_gok-42" value="dados pagamento OK" style="text;html=1;align=center;verticalAlign=middle;resizable=0;points=[];autosize=1;strokeColor=none;fillColor=none;" vertex="1" parent="6IAfeoGBQtWTbhFF_gok-10">
          <mxGeometry x="25" y="120" width="140" height="30" as="geometry" />
        </mxCell>
        <mxCell id="6IAfeoGBQtWTbhFF_gok-43" value="" style="endArrow=classic;startArrow=none;endFill=1;startFill=0;endSize=8;html=1;verticalAlign=bottom;dashed=1;labelBackgroundColor=none;rounded=0;" edge="1" parent="6IAfeoGBQtWTbhFF_gok-10">
          <mxGeometry width="160" relative="1" as="geometry">
            <mxPoint x="1024" y="250" as="sourcePoint" />
            <mxPoint x="620" y="250" as="targetPoint" />
          </mxGeometry>
        </mxCell>
        <mxCell id="6IAfeoGBQtWTbhFF_gok-44" value="dados não OK" style="edgeLabel;html=1;align=center;verticalAlign=middle;resizable=0;points=[];" vertex="1" connectable="0" parent="6IAfeoGBQtWTbhFF_gok-43">
          <mxGeometry x="0.2" relative="1" as="geometry">
            <mxPoint x="16" y="-10" as="offset" />
          </mxGeometry>
        </mxCell>
        <mxCell id="6IAfeoGBQtWTbhFF_gok-32" value="" style="endArrow=classic;startArrow=none;endFill=1;startFill=0;endSize=8;html=1;verticalAlign=bottom;labelBackgroundColor=none;strokeWidth=1;rounded=0;" edge="1" parent="1">
          <mxGeometry width="160" relative="1" as="geometry">
            <mxPoint x="240" y="990" as="sourcePoint" />
            <mxPoint x="380.5" y="990" as="targetPoint" />
            <Array as="points">
              <mxPoint x="310.5" y="990" />
            </Array>
          </mxGeometry>
        </mxCell>
        <mxCell id="6IAfeoGBQtWTbhFF_gok-33" value="carrego botão com destaque" style="edgeLabel;html=1;align=center;verticalAlign=middle;resizable=0;points=[];" vertex="1" connectable="0" parent="6IAfeoGBQtWTbhFF_gok-32">
          <mxGeometry x="-0.3133" y="-2" relative="1" as="geometry">
            <mxPoint x="12" y="-22" as="offset" />
          </mxGeometry>
        </mxCell>
        <mxCell id="6IAfeoGBQtWTbhFF_gok-34" value="" style="endArrow=classic;startArrow=none;endFill=1;startFill=0;endSize=8;html=1;verticalAlign=bottom;labelBackgroundColor=none;strokeWidth=1;rounded=0;" edge="1" parent="1">
          <mxGeometry width="160" relative="1" as="geometry">
            <mxPoint x="240" y="960" as="sourcePoint" />
            <mxPoint x="380.5" y="960" as="targetPoint" />
            <Array as="points">
              <mxPoint x="310.5" y="960" />
            </Array>
          </mxGeometry>
        </mxCell>
        <mxCell id="6IAfeoGBQtWTbhFF_gok-35" value="seleciona tipo conta" style="edgeLabel;html=1;align=center;verticalAlign=middle;resizable=0;points=[];" vertex="1" connectable="0" parent="6IAfeoGBQtWTbhFF_gok-34">
          <mxGeometry x="-0.3133" y="-2" relative="1" as="geometry">
            <mxPoint x="12" y="-22" as="offset" />
          </mxGeometry>
        </mxCell>
        <mxCell id="6IAfeoGBQtWTbhFF_gok-36" value="" style="endArrow=classic;startArrow=none;endFill=1;startFill=0;endSize=8;html=1;verticalAlign=bottom;labelBackgroundColor=none;strokeWidth=1;rounded=0;" edge="1" parent="1">
          <mxGeometry width="160" relative="1" as="geometry">
            <mxPoint x="240" y="1030" as="sourcePoint" />
            <mxPoint x="380.5" y="1030" as="targetPoint" />
            <Array as="points">
              <mxPoint x="310.5" y="1030" />
            </Array>
          </mxGeometry>
        </mxCell>
        <mxCell id="6IAfeoGBQtWTbhFF_gok-37" value="selecionar tipo pagamento" style="edgeLabel;html=1;align=center;verticalAlign=middle;resizable=0;points=[];" vertex="1" connectable="0" parent="6IAfeoGBQtWTbhFF_gok-36">
          <mxGeometry x="-0.3133" y="-2" relative="1" as="geometry">
            <mxPoint x="12" y="-22" as="offset" />
          </mxGeometry>
        </mxCell>
        <mxCell id="6IAfeoGBQtWTbhFF_gok-14" value="" style="endArrow=classic;startArrow=none;endFill=1;startFill=0;endSize=8;html=1;verticalAlign=bottom;labelBackgroundColor=none;strokeWidth=1;rounded=0;" edge="1" parent="1">
          <mxGeometry width="160" relative="1" as="geometry">
            <mxPoint x="440" y="1060" as="sourcePoint" />
            <mxPoint x="550" y="1060" as="targetPoint" />
            <Array as="points" />
          </mxGeometry>
        </mxCell>
        <mxCell id="6IAfeoGBQtWTbhFF_gok-15" value="envio dados" style="edgeLabel;html=1;align=center;verticalAlign=middle;resizable=0;points=[];" vertex="1" connectable="0" parent="6IAfeoGBQtWTbhFF_gok-14">
          <mxGeometry x="-0.3133" y="-2" relative="1" as="geometry">
            <mxPoint x="19" y="-12" as="offset" />
          </mxGeometry>
        </mxCell>
        <mxCell id="6IAfeoGBQtWTbhFF_gok-12" value="" style="endArrow=classic;startArrow=none;endFill=1;startFill=0;endSize=8;html=1;verticalAlign=bottom;labelBackgroundColor=none;strokeWidth=1;rounded=0;" edge="1" parent="1">
          <mxGeometry width="160" relative="1" as="geometry">
            <mxPoint x="620" y="1080" as="sourcePoint" />
            <mxPoint x="1024" y="1080" as="targetPoint" />
            <Array as="points">
              <mxPoint x="690.5" y="1080" />
            </Array>
          </mxGeometry>
        </mxCell>
        <mxCell id="6IAfeoGBQtWTbhFF_gok-13" value="envia dados" style="edgeLabel;html=1;align=center;verticalAlign=middle;resizable=0;points=[];" vertex="1" connectable="0" parent="6IAfeoGBQtWTbhFF_gok-12">
          <mxGeometry x="-0.3133" y="-2" relative="1" as="geometry">
            <mxPoint x="19" y="-12" as="offset" />
          </mxGeometry>
        </mxCell>
      </root>
    </mxGraphModel>
  </diagram>
</mxfile>
